<?xml version="1.0" encoding="UTF-8"?>
<svg width="107px" height="34px" viewBox="0 0 107 34" version="1.1" xmlns="http://www.w3.org/2000/svg" xmlns:xlink="http://www.w3.org/1999/xlink">
    <!-- Generator: Sketch 49.2 (51160) - http://www.bohemiancoding.com/sketch -->
    <title>Group 4</title>
    <desc>Created with Sketch.</desc>
    <defs></defs>
    <g id="Page-1" stroke="none" stroke-width="1" fill="none" fill-rule="evenodd">
        <g id="http://rawico.com/wp-content/uploads/2018/02/ocean-protocol-coin.jpg-" transform="translate(-491.000000, -205.000000)">
            <g id="Group-4" transform="translate(486.000000, 199.000000)">
                <g id="Group" transform="translate(45.984375, 9.162109)" fill="#FFFFFF">
                    <path d="M0,25.7747263 L0,1.41576066 C0,1.04780046 0.294368165,0.716636271 0.662328371,0.716636271 L9.38298526,0.716636271 C16.4846172,0.716636271 22.2983885,6.49361151 22.2983885,13.5584475 C22.2983885,20.6968755 16.4846172,26.4738507 9.38298526,26.4738507 L0.662328371,26.4738507 C0.294368165,26.4738507 0,26.1426865 0,25.7747263 Z M4.74668666,21.9847362 L8.94143301,21.9847362 C13.7249157,21.9847362 17.2205377,18.3787262 17.2205377,13.5584475 C17.2205377,8.77496479 13.7249157,5.16895477 8.94143301,5.16895477 L4.74668666,5.16895477 L4.74668666,21.9847362 Z M25.1112399,25.7747263 L25.1112399,1.41576066 C25.1112399,1.04780046 25.405608,0.716636271 25.8103643,0.716636271 L40.7863447,0.716636271 C41.1911009,0.716636271 41.485469,1.04780046 41.485469,1.41576066 L41.485469,4.43303436 C41.485469,4.80099456 41.1911009,5.13215875 40.7863447,5.13215875 L29.8947225,5.13215875 L29.8947225,11.1667061 L38.9833396,11.1667061 C39.3512998,11.1667061 39.682464,11.4978703 39.682464,11.8658305 L39.682464,14.9199002 C39.682464,15.3246565 39.3512998,15.6190246 38.9833396,15.6190246 L29.8947225,15.6190246 L29.8947225,22.0583282 L40.7863447,22.0583282 C41.1911009,22.0583282 41.485469,22.3894924 41.485469,22.7574526 L41.485469,25.7747263 C41.485469,26.1426865 41.1911009,26.4738507 40.7863447,26.4738507 L25.8103643,26.4738507 C25.405608,26.4738507 25.1112399,26.1426865 25.1112399,25.7747263 Z M44.5027427,25.4435621 L52.156315,13.2640793 L44.7971109,1.74692485 C44.5027427,1.26857658 44.7971109,0.716636271 45.4226433,0.716636271 L49.6909816,0.716636271 C49.9853498,0.716636271 50.1693299,0.900616375 50.279718,1.04780046 L54.9896086,8.84855683 L55.0264046,8.84855683 L59.8098873,1.04780046 C59.8834794,0.900616375 60.1042555,0.716636271 60.3986237,0.716636271 L64.666962,0.716636271 C65.2924944,0.716636271 65.5868626,1.26857658 65.2924944,1.74692485 L57.8964942,13.2640793 L65.5500665,25.4435621 C65.8444347,25.9587064 65.5500665,26.4738507 64.9245342,26.4738507 L60.950564,26.4738507 C60.6561958,26.4738507 60.3986237,26.2898706 60.3250316,26.1426865 L55.0632007,17.7163978 L54.9528126,17.7163978 L49.7645737,26.1426865 C49.6541856,26.2898706 49.4334095,26.4738507 49.1390413,26.4738507 L45.1650711,26.4738507 C44.5027427,26.4738507 44.2083746,25.9219104 44.5027427,25.4435621 Z" id="DEX"></path>
                </g>
                <g id="Group-3" transform="translate(22.636582, 23.129431) rotate(-45.000000) translate(-22.636582, -23.129431) translate(6.636582, 7.629431)">
                    <g id="Group-2" transform="translate(7.570798, 0.000000)" fill="#D8D8D8">
                        <rect id="Rectangle" x="0" y="0" width="6.46357216" height="6.46357216"></rect>
                        <rect id="Rectangle" x="10.6185003" y="0" width="6.46357216" height="6.46357216"></rect>
                    </g>
                    <rect id="Rectangle" fill="#D43A31" x="7.570798" y="17.0822979" width="6.46357216" height="6.46357216"></rect>
                    <rect id="Rectangle" fill="#D43A31" x="7.570798" y="6.46357216" width="6.46357216" height="6.46357216"></rect>
                    <rect id="Rectangle-2" fill="#D43A31" x="14.0343702" y="8.77199079" width="4.15515353" height="1.38505118"></rect>
                    <rect id="Rectangle-2" fill="#D43A31" x="14.0343702" y="19.6215583" width="4.15515353" height="1.38505118"></rect>
                    <rect id="Rectangle-2" fill="#D43A31" transform="translate(10.802584, 15.004721) rotate(-270.000000) translate(-10.802584, -15.004721) " x="8.72500731" y="14.3121955" width="4.15515353" height="1.38505118"></rect>
                    <rect id="Rectangle-2" fill="#D43A31" transform="translate(21.652152, 15.004721) rotate(-270.000000) translate(-21.652152, -15.004721) " x="19.5745749" y="14.3121955" width="4.15515353" height="1.38505118"></rect>
                    <rect id="Rectangle" fill="#D43A31" x="18.1895237" y="6.46357216" width="6.46357216" height="6.46357216"></rect>
                    <rect id="Rectangle" fill="#D43A31" x="18.1895237" y="17.0822979" width="6.46357216" height="6.46357216"></rect>
                    <rect id="Rectangle" fill="#D43A31" x="18.1895237" y="17.0822979" width="6.46357216" height="6.46357216"></rect>
                    <g id="Group-2" transform="translate(7.570798, 23.545870)" fill="#D8D8D8">
                        <rect id="Rectangle" x="0" y="0" width="6.46357216" height="6.46357216"></rect>
                        <rect id="Rectangle" x="10.6185003" y="0" width="6.46357216" height="6.46357216"></rect>
                    </g>
                    <g id="Group-2" transform="translate(27.616668, 15.463572) rotate(-270.000000) translate(-27.616668, -15.463572) translate(18.616668, 11.963572)" fill="#D8D8D8">
                        <rect id="Rectangle" x="0" y="0" width="6.46357216" height="6.46357216"></rect>
                        <rect id="Rectangle" x="10.6185003" y="0" width="6.46357216" height="6.46357216"></rect>
                    </g>
                    <g id="Group-2" transform="translate(4.070798, 15.463572) rotate(-270.000000) translate(-4.070798, -15.463572) translate(-4.929202, 11.963572)" fill="#D8D8D8">
                        <rect id="Rectangle" x="0" y="0" width="6.46357216" height="6.46357216"></rect>
                        <rect id="Rectangle" x="10.6185003" y="0" width="6.46357216" height="6.46357216"></rect>
                    </g>
                </g>
            </g>
        </g>
    </g>
</svg>