<?xml version="1.0" encoding="UTF-8"?>
<svg width="174px" height="89px" viewBox="0 0 174 89" version="1.1" xmlns="http://www.w3.org/2000/svg" xmlns:xlink="http://www.w3.org/1999/xlink">
    <!-- Generator: Sketch 50.2 (55047) - http://www.bohemiancoding.com/sketch -->
    <title>collab-dex-logo</title>
    <desc>Created with Sketch.</desc>
    <defs></defs>
    <g id="Page-1" stroke="none" stroke-width="1" fill="none" fill-rule="evenodd">
        <g id="Artboard-2-Copy" transform="translate(-133.000000, -318.000000)">
            <g id="Group-4" transform="translate(125.943567, 326.849049)">
                <g id="Group" transform="translate(73.882606, 14.025163)" fill="#D23C37">
                    <path d="M0,40.9724891 L0,1.30547546 C0,0.706275858 0.479359682,0.166996217 1.07855928,0.166996217 L15.2795899,0.166996217 C26.8441422,0.166996217 36.3114959,9.57442997 36.3114959,21.0790623 C36.3114959,32.7035346 26.8441422,42.1109684 15.2795899,42.1109684 L1.07855928,42.1109684 C0.479359682,42.1109684 0,41.5716887 0,40.9724891 Z M7.72967487,34.8007332 L14.5605503,34.8007332 C22.3501452,34.8007332 28.0425414,28.9285771 28.0425414,21.0790623 C28.0425414,13.2894675 22.3501452,7.4173114 14.5605503,7.4173114 L7.72967487,7.4173114 L7.72967487,34.8007332 Z M40.892044,40.9724891 L40.892044,1.30547546 C40.892044,0.706275858 41.3714036,0.166996217 42.0305232,0.166996217 L66.417947,0.166996217 C67.0770666,0.166996217 67.5564262,0.706275858 67.5564262,1.30547546 L67.5564262,6.2189122 C67.5564262,6.8181118 67.0770666,7.35739144 66.417947,7.35739144 L48.6816388,7.35739144 L48.6816388,17.1842649 L63.481869,17.1842649 C64.0810686,17.1842649 64.6203482,17.7235446 64.6203482,18.3227442 L64.6203482,23.2961009 C64.6203482,23.9552204 64.0810686,24.4345801 63.481869,24.4345801 L48.6816388,24.4345801 L48.6816388,34.9205731 L66.417947,34.9205731 C67.0770666,34.9205731 67.5564262,35.4598528 67.5564262,36.0590524 L67.5564262,40.9724891 C67.5564262,41.5716887 67.0770666,42.1109684 66.417947,42.1109684 L42.0305232,42.1109684 C41.3714036,42.1109684 40.892044,41.5716887 40.892044,40.9724891 Z M72.469863,40.4332095 L84.9332147,20.5997026 L72.9492227,1.8447551 C72.469863,1.06579562 72.9492227,0.166996217 73.967862,0.166996217 L80.9185774,0.166996217 C81.3979371,0.166996217 81.6975369,0.466596018 81.8772967,0.706275858 L89.5470516,13.4093074 L89.6069716,13.4093074 L97.3965664,0.706275858 C97.5164064,0.466596018 97.8759261,0.166996217 98.3552858,0.166996217 L105.306001,0.166996217 C106.324641,0.166996217 106.804,1.06579562 106.324641,1.8447551 L94.2807285,20.5997026 L106.74408,40.4332095 C107.22344,41.2720889 106.74408,42.1109684 105.725441,42.1109684 L99.2540852,42.1109684 C98.7747255,42.1109684 98.3552858,41.8113686 98.2354459,41.5716887 L89.6668916,27.8500178 L89.4871317,27.8500178 L81.0384173,41.5716887 C80.8586574,41.8113686 80.4991377,42.1109684 80.019778,42.1109684 L73.5484223,42.1109684 C72.469863,42.1109684 71.9905033,41.212169 72.469863,40.4332095 Z" id="DEX"></path>
                </g>
                <g id="Group-3" transform="translate(35.653109, 35.638683) rotate(-45.000000) translate(-35.653109, -35.638683) translate(10.653109, 10.638683)">
                    <g id="Group-2" transform="translate(11.328559, 0.000000)" fill="#D8D8D8">
                        <rect id="Rectangle" x="0" y="0" width="10.5255128" height="10.5255128"></rect>
                        <rect id="Rectangle" x="17.2915468" y="0" width="10.5255128" height="10.5255128"></rect>
                    </g>
                    <rect id="Rectangle" fill="#D43A31" x="11.3285591" y="27.8174267" width="10.5255128" height="10.5255128"></rect>
                    <rect id="Rectangle" fill="#D43A31" x="11.3285591" y="10.5255128" width="10.5255128" height="10.5255128"></rect>
                    <rect id="Rectangle-2" fill="#D43A31" x="21.8540719" y="14.2846245" width="6.76640109" height="2.25546703"></rect>
                    <rect id="Rectangle-2" fill="#D43A31" x="21.8540719" y="31.9524496" width="6.76640109" height="2.25546703"></rect>
                    <rect id="Rectangle-2" fill="#D43A31" transform="translate(16.591315, 24.434226) rotate(-270.000000) translate(-16.591315, -24.434226) " x="13.208115" y="23.3064927" width="6.76640109" height="2.25546703"></rect>
                    <rect id="Rectangle-2" fill="#D43A31" transform="translate(34.259141, 24.434226) rotate(-270.000000) translate(-34.259141, -24.434226) " x="30.87594" y="23.3064927" width="6.76640109" height="2.25546703"></rect>
                    <rect id="Rectangle" fill="#D43A31" x="28.620473" y="10.5255128" width="10.5255128" height="10.5255128"></rect>
                    <rect id="Rectangle" fill="#D43A31" x="28.620473" y="27.8174267" width="10.5255128" height="10.5255128"></rect>
                    <rect id="Rectangle" fill="#D43A31" x="28.620473" y="27.8174267" width="10.5255128" height="10.5255128"></rect>
                    <g id="Group-2" transform="translate(11.328559, 38.342940)" fill="#D8D8D8">
                        <rect id="Rectangle" x="0" y="0" width="10.5255128" height="10.5255128"></rect>
                        <rect id="Rectangle" x="17.2915468" y="0" width="10.5255128" height="10.5255128"></rect>
                    </g>
                    <g id="Group-2" transform="translate(44.171499, 24.525513) rotate(-270.000000) translate(-44.171499, -24.525513) translate(30.171499, 19.025513)" fill="#D8D8D8">
                        <rect id="Rectangle" x="0" y="0" width="10.5255128" height="10.5255128"></rect>
                        <rect id="Rectangle" x="17.2915468" y="0" width="10.5255128" height="10.5255128"></rect>
                    </g>
                    <g id="Group-2" transform="translate(5.828559, 24.525513) rotate(-270.000000) translate(-5.828559, -24.525513) translate(-8.171441, 19.025513)" fill="#D8D8D8">
                        <rect id="Rectangle" x="0" y="0" width="10.5255128" height="10.5255128"></rect>
                        <rect id="Rectangle" x="17.2915468" y="0" width="10.5255128" height="10.5255128"></rect>
                    </g>
                </g>
            </g>
        </g>
    </g>
</svg>